<svg width="24" height="24" viewBox="0 0 24 24" fill="none" xmlns="http://www.w3.org/2000/svg">
<path d="M10.7388 7.13112C10.7385 6.08027 11.0084 5.04698 11.5225 4.13048C12.0367 3.21399 12.7778 2.44508 13.6748 1.89758C14.5717 1.35009 15.5944 1.0424 16.6446 1.00408C17.6947 0.965752 18.7371 1.19807 19.6716 1.67872C19.7834 1.73645 19.88 1.81976 19.9535 1.92187C20.0271 2.02398 20.0755 2.142 20.0948 2.26634C20.1141 2.39069 20.1038 2.51783 20.0647 2.63744C20.0256 2.75705 19.9589 2.86575 19.8699 2.95468L16.9225 5.9042L18.0524 7.03412L21.0147 4.07288C21.1032 3.98447 21.2112 3.91807 21.3301 3.87902C21.4489 3.83996 21.5753 3.82934 21.699 3.848C21.8226 3.86666 21.9402 3.91409 22.0423 3.98647C22.1443 4.05886 22.2279 4.15417 22.2864 4.26475C22.8388 5.30702 23.0787 6.48656 22.9773 7.6618C22.8759 8.83705 22.4376 9.95807 21.7149 10.8904C20.9921 11.8226 20.0157 12.5266 18.9028 12.9176C17.7899 13.3087 16.5878 13.3704 15.4408 13.0952L7.58996 21.2157C6.99061 21.8358 6.16947 22.1925 5.30717 22.2072C4.44487 22.2218 3.61206 21.8934 2.99193 21.294C2.3718 20.6947 2.01517 19.8736 2.00047 19.0113C1.9932 18.5843 2.07009 18.1601 2.22676 17.7628C2.38343 17.3656 2.61681 17.0031 2.91358 16.696L10.8817 8.45185C10.7865 8.01841 10.7387 7.57594 10.7388 7.13219V7.13112ZM16.8681 2.60078C16.1602 2.60056 15.462 2.76626 14.8297 3.08458C14.1973 3.4029 13.6484 3.86498 13.2269 4.43376C12.8054 5.00254 12.523 5.66219 12.4025 6.3598C12.282 7.0574 12.3266 7.77355 12.5328 8.45079C12.5745 8.58724 12.5788 8.73234 12.5455 8.87105C12.5121 9.00975 12.4422 9.13701 12.3431 9.2396L4.06269 17.8057C3.91186 17.9618 3.79324 18.146 3.71362 18.3479C3.634 18.5499 3.59493 18.7655 3.59864 18.9825C3.60235 19.1995 3.64878 19.4137 3.73526 19.6128C3.82174 19.8119 3.94658 19.992 4.10266 20.1428C4.25875 20.2936 4.44301 20.4122 4.64493 20.4919C4.84685 20.5715 5.06248 20.6106 5.2795 20.6068C5.49653 20.6031 5.71069 20.5567 5.90977 20.4702C6.10886 20.3838 6.28895 20.2589 6.43979 20.1028L14.6221 11.6391C14.7266 11.5306 14.8595 11.4539 15.0057 11.4177C15.1518 11.3815 15.3052 11.3873 15.4482 11.4344C16.2149 11.6879 17.0355 11.7318 17.8249 11.5617C18.6143 11.3915 19.3438 11.0135 19.938 10.4667C20.5322 9.91987 20.9695 9.22417 21.2045 8.45161C21.4396 7.67905 21.4638 6.85771 21.2748 6.07262L18.6184 8.73007C18.5442 8.80436 18.456 8.8633 18.359 8.9035C18.262 8.94371 18.158 8.96441 18.0529 8.96441C17.9479 8.96441 17.8439 8.94371 17.7469 8.9035C17.6498 8.8633 17.5617 8.80436 17.4874 8.73007L15.2265 6.4681C15.0768 6.31819 14.9927 6.115 14.9927 5.90313C14.9927 5.69127 15.0768 5.48808 15.2265 5.33817L17.8552 2.70844C17.5311 2.63665 17.2001 2.60055 16.8681 2.60078V2.60078Z" fill="black"/>
</svg>
