<svg width="24" height="24" viewBox="0 0 24 24" fill="none" xmlns="http://www.w3.org/2000/svg">
<g clip-path="url(#clip0_913_5213)">
<path d="M21 13.5H22.5V21H21V13.5ZM18 10.5H19.5V21H18V10.5ZM15 16.5H16.5V21H15V16.5ZM16.6313 7.5L17.82 6.5505C16.7147 5.16872 15.1544 4.22458 13.4175 3.8865C12.4497 3.69947 11.4544 3.70504 10.4887 3.90288C9.52297 4.10073 8.60572 4.48698 7.78937 5.03955C6.97302 5.59212 6.27359 6.30016 5.73106 7.12322C5.18852 7.94627 4.81353 8.86818 4.62752 9.83625C3.21324 10.0916 1.95022 10.8783 1.09735 12.0351C0.244479 13.1918 -0.133633 14.6309 0.0405213 16.0575C0.239788 17.4439 0.937117 18.7102 2.00216 19.6198C3.0672 20.5295 4.42705 21.0201 5.82752 21H12V19.5H5.77052C4.78822 19.5153 3.83131 19.1877 3.06447 18.5736C2.29762 17.9596 1.7688 17.0974 1.56902 16.1355C1.46899 15.6003 1.47578 15.0507 1.58898 14.5181C1.70219 13.9856 1.91958 13.4807 2.22865 13.0325C2.53772 12.5843 2.93236 12.2017 3.38988 11.9066C3.8474 11.6115 4.35875 11.4097 4.89452 11.313L5.90627 11.1292L6.06677 10.2967C6.2921 9.04594 6.89914 7.89555 7.80452 7.0036C8.70991 6.11164 9.86923 5.52186 11.1233 5.31525C11.8761 5.20349 12.6434 5.23658 13.3838 5.41275C14.6712 5.72122 15.816 6.45701 16.6313 7.5V7.5Z" fill="black"/>
</g>
<defs>
<clipPath id="clip0_913_5213">
<rect width="24" height="24" fill="white"/>
</clipPath>
</defs>
</svg>
