<svg width="24" height="24" viewBox="0 0 24 24" fill="none" xmlns="http://www.w3.org/2000/svg">
<path d="M3.87891 17.8969C4.32103 16.8496 4.96263 15.8984 5.76797 15.0961C6.57086 14.2915 7.52196 13.65 8.56875 13.207C8.57813 13.2023 8.5875 13.2 8.59688 13.1953C7.13672 12.1406 6.1875 10.4227 6.1875 8.48438C6.1875 5.27344 8.78906 2.67188 12 2.67188C15.2109 2.67188 17.8125 5.27344 17.8125 8.48438C17.8125 10.4227 16.8633 12.1406 15.4031 13.1977C15.4125 13.2023 15.4219 13.2047 15.4313 13.2094C16.4813 13.6523 17.4234 14.2875 18.232 15.0984C19.0366 15.9013 19.6781 16.8524 20.1211 17.8992C20.5563 18.924 20.791 20.0228 20.8125 21.1359C20.8131 21.161 20.8087 21.1858 20.7996 21.2091C20.7905 21.2324 20.7767 21.2537 20.7593 21.2716C20.7418 21.2895 20.7209 21.3037 20.6979 21.3134C20.6748 21.3231 20.65 21.3281 20.625 21.3281H19.2188C19.1156 21.3281 19.0336 21.2461 19.0313 21.1453C18.9844 19.3359 18.2578 17.6414 16.9734 16.357C15.6445 15.0281 13.8797 14.2969 12 14.2969C10.1203 14.2969 8.35547 15.0281 7.02656 16.357C5.74219 17.6414 5.01563 19.3359 4.96875 21.1453C4.96641 21.2484 4.88438 21.3281 4.78125 21.3281H3.375C3.34998 21.3281 3.32521 21.3231 3.30215 21.3134C3.27909 21.3037 3.25821 21.2895 3.24073 21.2716C3.22326 21.2537 3.20955 21.2324 3.20041 21.2091C3.19126 21.1858 3.18688 21.161 3.1875 21.1359C3.21094 20.0156 3.44297 18.9258 3.87891 17.8969V17.8969ZM12 12.5156C13.0758 12.5156 14.0883 12.0961 14.85 11.3344C15.6117 10.5727 16.0313 9.56016 16.0313 8.48438C16.0313 7.40859 15.6117 6.39609 14.85 5.63437C14.0883 4.87266 13.0758 4.45312 12 4.45312C10.9242 4.45312 9.91172 4.87266 9.15 5.63437C8.38828 6.39609 7.96875 7.40859 7.96875 8.48438C7.96875 9.56016 8.38828 10.5727 9.15 11.3344C9.91172 12.0961 10.9242 12.5156 12 12.5156Z" fill="black"/>
</svg>
