<svg width="24" height="24" viewBox="0 0 24 24" fill="none" xmlns="http://www.w3.org/2000/svg">
<path d="M9.16667 7C9.38768 7 9.59964 6.9122 9.75592 6.75592C9.9122 6.59964 10 6.38768 10 6.16667C10 5.94565 9.9122 5.73369 9.75592 5.57741C9.59964 5.42113 9.38768 5.33333 9.16667 5.33333C8.94565 5.33333 8.73369 5.42113 8.57741 5.57741C8.42113 5.73369 8.33333 5.94565 8.33333 6.16667C8.33333 6.38768 8.42113 6.59964 8.57741 6.75592C8.73369 6.9122 8.94565 7 9.16667 7V7ZM10 10.3333C10 10.5543 9.9122 10.7663 9.75592 10.9226C9.59964 11.0789 9.38768 11.1667 9.16667 11.1667C8.94565 11.1667 8.73369 11.0789 8.57741 10.9226C8.42113 10.7663 8.33333 10.5543 8.33333 10.3333C8.33333 10.1123 8.42113 9.90036 8.57741 9.74408C8.73369 9.5878 8.94565 9.5 9.16667 9.5C9.38768 9.5 9.59964 9.5878 9.75592 9.74408C9.9122 9.90036 10 10.1123 10 10.3333V10.3333ZM9.16667 15.3333C9.38768 15.3333 9.59964 15.2455 9.75592 15.0893C9.9122 14.933 10 14.721 10 14.5C10 14.279 9.9122 14.067 9.75592 13.9107C9.59964 13.7545 9.38768 13.6667 9.16667 13.6667C8.94565 13.6667 8.73369 13.7545 8.57741 13.9107C8.42113 14.067 8.33333 14.279 8.33333 14.5C8.33333 14.721 8.42113 14.933 8.57741 15.0893C8.73369 15.2455 8.94565 15.3333 9.16667 15.3333V15.3333ZM13.3333 6.16667C13.3333 6.38768 13.2455 6.59964 13.0893 6.75592C12.933 6.9122 12.721 7 12.5 7C12.279 7 12.067 6.9122 11.9107 6.75592C11.7545 6.59964 11.6667 6.38768 11.6667 6.16667C11.6667 5.94565 11.7545 5.73369 11.9107 5.57741C12.067 5.42113 12.279 5.33333 12.5 5.33333C12.721 5.33333 12.933 5.42113 13.0893 5.57741C13.2455 5.73369 13.3333 5.94565 13.3333 6.16667V6.16667ZM12.5 11.1667C12.721 11.1667 12.933 11.0789 13.0893 10.9226C13.2455 10.7663 13.3333 10.5543 13.3333 10.3333C13.3333 10.1123 13.2455 9.90036 13.0893 9.74408C12.933 9.5878 12.721 9.5 12.5 9.5C12.279 9.5 12.067 9.5878 11.9107 9.74408C11.7545 9.90036 11.6667 10.1123 11.6667 10.3333C11.6667 10.5543 11.7545 10.7663 11.9107 10.9226C12.067 11.0789 12.279 11.1667 12.5 11.1667ZM13.3333 14.5C13.3333 14.721 13.2455 14.933 13.0893 15.0893C12.933 15.2455 12.721 15.3333 12.5 15.3333C12.279 15.3333 12.067 15.2455 11.9107 15.0893C11.7545 14.933 11.6667 14.721 11.6667 14.5C11.6667 14.279 11.7545 14.067 11.9107 13.9107C12.067 13.7545 12.279 13.6667 12.5 13.6667C12.721 13.6667 12.933 13.7545 13.0893 13.9107C13.2455 14.067 13.3333 14.279 13.3333 14.5ZM15.8333 15.3333C16.0543 15.3333 16.2663 15.2455 16.4226 15.0893C16.5789 14.933 16.6667 14.721 16.6667 14.5C16.6667 14.279 16.5789 14.067 16.4226 13.9107C16.2663 13.7545 16.0543 13.6667 15.8333 13.6667C15.6123 13.6667 15.4004 13.7545 15.2441 13.9107C15.0878 14.067 15 14.279 15 14.5C15 14.721 15.0878 14.933 15.2441 15.0893C15.4004 15.2455 15.6123 15.3333 15.8333 15.3333ZM7.5 2C6.83696 2 6.20107 2.26339 5.73223 2.73223C5.26339 3.20107 5 3.83696 5 4.5V21.1667C5 21.3877 5.0878 21.5996 5.24408 21.7559C5.40036 21.9122 5.61232 22 5.83333 22H19.1667C19.3877 22 19.5996 21.9122 19.7559 21.7559C19.9122 21.5996 20 21.3877 20 21.1667V12.8333C20 12.1703 19.7366 11.5344 19.2678 11.0656C18.7989 10.5967 18.163 10.3333 17.5 10.3333H16.6667V4.5C16.6667 3.83696 16.4033 3.20107 15.9344 2.73223C15.4656 2.26339 14.8297 2 14.1667 2H7.5ZM6.66667 4.5C6.66667 4.27899 6.75446 4.06703 6.91074 3.91074C7.06702 3.75446 7.27899 3.66667 7.5 3.66667H14.1667C14.3877 3.66667 14.5996 3.75446 14.7559 3.91074C14.9122 4.06703 15 4.27899 15 4.5V11.1667C15 11.3877 15.0878 11.5996 15.2441 11.7559C15.4004 11.9122 15.6123 12 15.8333 12H17.5C17.721 12 17.933 12.0878 18.0893 12.2441C18.2455 12.4004 18.3333 12.6123 18.3333 12.8333V20.3333H16.6667V17.8333C16.6667 17.6123 16.5789 17.4004 16.4226 17.2441C16.2663 17.0878 16.0543 17 15.8333 17H9.16667C8.94565 17 8.73369 17.0878 8.57741 17.2441C8.42113 17.4004 8.33333 17.6123 8.33333 17.8333V20.3333H6.66667V4.5ZM15 18.6667V20.3333H13.3383V18.6667H15ZM11.6717 18.6667V20.3333H10V18.6667H11.6717Z" fill="black"/>
</svg>
