<svg width="24" height="24" viewBox="0 0 24 24" fill="none" xmlns="http://www.w3.org/2000/svg">
<path d="M3 10.3889L12.5 3L22 10.3889" stroke="black" stroke-width="1.5" stroke-linecap="round" stroke-linejoin="round"/>
<path d="M5.11206 8.80518V21.4718H19.8898V9.33295" stroke="black" stroke-width="1.5" stroke-linecap="round" stroke-linejoin="round"/>
<path d="M12.4403 15.5154C13.2897 15.5154 13.9783 14.8268 13.9783 13.9774C13.9783 13.128 13.2897 12.4395 12.4403 12.4395C11.5909 12.4395 10.9023 13.128 10.9023 13.9774C10.9023 14.8268 11.5909 15.5154 12.4403 15.5154Z" stroke="black" stroke-width="1.5"/>
<path d="M12.4412 17.5661V15.5155M12.4412 12.4395V10.3889M9.3335 15.7718L11.1093 14.7465M13.7731 13.2085L15.5489 12.1832M9.3335 12.1832L11.1093 13.2085M13.7731 14.7465L15.5489 15.7718" stroke="black" stroke-width="1.5" stroke-linecap="round" stroke-linejoin="round"/>
</svg>
