<svg width="24" height="24" viewBox="0 0 24 24" fill="none" xmlns="http://www.w3.org/2000/svg">
<path d="M11.7421 3H4.45702C4.07059 3 3.69999 3.15351 3.42675 3.42675C3.15351 3.69999 3 4.07059 3 4.45702V15.1418C3 15.5282 3.15351 15.8988 3.42675 16.1721C3.69999 16.4453 4.07059 16.5988 4.45702 16.5988H19.0272C19.4136 16.5988 19.7842 16.4453 20.0575 16.1721C20.3307 15.8988 20.4842 15.5282 20.4842 15.1418V12.7135M11.7421 16.5988V20.4842M6.88538 20.4842H16.5988" stroke="black" stroke-width="1.5" stroke-linecap="round" stroke-linejoin="round"/>
<path d="M18.0552 7.85666C18.8599 7.85666 19.5122 7.20433 19.5122 6.39965C19.5122 5.59496 18.8599 4.94263 18.0552 4.94263C17.2505 4.94263 16.5981 5.59496 16.5981 6.39965C16.5981 7.20433 17.2505 7.85666 18.0552 7.85666Z" stroke="black" stroke-width="1.5"/>
<path d="M18.0557 9.79942V7.85673M18.0557 4.94269V3M15.1116 8.09957L16.7939 7.12822M19.3175 5.6712L20.9999 4.69986M15.1116 4.69986L16.7939 5.6712M19.3175 7.12822L20.9999 8.09957" stroke="black" stroke-width="1.5" stroke-linecap="round" stroke-linejoin="round"/>
</svg>
