<svg width="24" height="24" viewBox="0 0 24 24" fill="none" xmlns="http://www.w3.org/2000/svg">
<path d="M11.8889 11.6296C11.2679 11.632 10.6684 11.8573 10.1995 12.2643C9.73052 12.6714 9.42324 13.2332 9.33354 13.8477C9.24384 14.4622 9.37766 15.0884 9.71068 15.6125C10.0437 16.1367 10.5538 16.5239 11.1481 16.7037V18.2963C11.1481 18.4928 11.2262 18.6812 11.3651 18.8201C11.504 18.959 11.6924 19.037 11.8889 19.037C12.0853 19.037 12.2738 18.959 12.4127 18.8201C12.5516 18.6812 12.6296 18.4928 12.6296 18.2963V16.7037C13.224 16.5239 13.7341 16.1367 14.0671 15.6125C14.4001 15.0884 14.5339 14.4622 14.4442 13.8477C14.3545 13.2332 14.0473 12.6714 13.5783 12.2643C13.1093 11.8573 12.5099 11.632 11.8889 11.6296V11.6296ZM11.8889 15.3333C11.6691 15.3333 11.4543 15.2682 11.2716 15.1461C11.0889 15.024 10.9465 14.8505 10.8624 14.6474C10.7783 14.4444 10.7563 14.221 10.7991 14.0055C10.842 13.7899 10.9478 13.5919 11.1032 13.4365C11.2586 13.2812 11.4566 13.1753 11.6721 13.1325C11.8877 13.0896 12.1111 13.1116 12.3141 13.1957C12.5171 13.2798 12.6907 13.4222 12.8127 13.6049C12.9348 13.7876 13 14.0025 13 14.2222C13 14.5169 12.8829 14.7995 12.6746 15.0079C12.4662 15.2163 12.1836 15.3333 11.8889 15.3333ZM19.2963 8.66667H9.2963V6.07407C9.2963 5.38648 9.56944 4.72704 10.0556 4.24083C10.5419 3.75463 11.2013 3.48148 11.8889 3.48148C12.5765 3.48148 13.2359 3.75463 13.7221 4.24083C14.2083 4.72704 14.4815 5.38648 14.4815 6.07407C14.4815 6.27053 14.5595 6.45894 14.6984 6.59786C14.8374 6.73677 15.0258 6.81481 15.2222 6.81481C15.4187 6.81481 15.6071 6.73677 15.746 6.59786C15.8849 6.45894 15.963 6.27053 15.963 6.07407C15.963 4.99356 15.5337 3.95731 14.7697 3.19327C14.0057 2.42923 12.9694 2 11.8889 2C10.8084 2 9.77212 2.42923 9.00808 3.19327C8.24405 3.95731 7.81481 4.99356 7.81481 6.07407V8.66667H4.48148C4.08857 8.66667 3.71175 8.82275 3.43392 9.10058C3.15608 9.37841 3 9.75523 3 10.1481V20.5185C3 20.9114 3.15608 21.2883 3.43392 21.5661C3.71175 21.8439 4.08857 22 4.48148 22H19.2963C19.6892 22 20.066 21.8439 20.3439 21.5661C20.6217 21.2883 20.7778 20.9114 20.7778 20.5185V10.1481C20.7778 9.75523 20.6217 9.37841 20.3439 9.10058C20.066 8.82275 19.6892 8.66667 19.2963 8.66667ZM19.2963 20.5185H4.48148V10.1481H19.2963V20.5185Z" fill="black"/>
</svg>
