<svg width="40" height="40" viewBox="0 0 40 40" fill="none" xmlns="http://www.w3.org/2000/svg">
<path d="M19.9999 3.33337C10.9649 3.33337 3.33325 10.965 3.33325 20C3.33325 29.035 10.9649 36.6667 19.9999 36.6667C29.0349 36.6667 36.6666 29.035 36.6666 20C36.6666 10.965 29.0349 3.33337 19.9999 3.33337ZM19.9999 11.6667C22.8783 11.6667 24.9999 13.7867 24.9999 16.6667C24.9999 19.5467 22.8783 21.6667 19.9999 21.6667C17.1233 21.6667 14.9999 19.5467 14.9999 16.6667C14.9999 13.7867 17.1233 11.6667 19.9999 11.6667ZM11.4899 27.9534C12.9849 25.7534 15.4783 24.2867 18.3333 24.2867H21.6666C24.5233 24.2867 27.0149 25.7534 28.5099 27.9534C26.3799 30.2334 23.3583 31.6667 19.9999 31.6667C16.6416 31.6667 13.6199 30.2334 11.4899 27.9534Z" fill="#E3E3E3"/>
</svg>
