<svg width="70" height="70" viewBox="0 0 70 70" fill="none" xmlns="http://www.w3.org/2000/svg">
<g filter="url(#filter0_d_120_9342)">
<path d="M35.7526 51.3594V43.8441C35.7526 43.5119 35.6206 43.1933 35.3857 42.9584C35.1508 42.7235 34.8322 42.5916 34.5 42.5916C34.1678 42.5916 33.8493 42.7235 33.6144 42.9584C33.3795 43.1933 33.2475 43.5119 33.2475 43.8441V51.3594L27.7488 56.8582C27.5155 57.0929 27.3845 57.4104 27.3845 57.7413C27.3845 58.0722 27.5155 58.3896 27.7488 58.6243C27.8652 58.7417 28.0037 58.8349 28.1564 58.8985C28.309 58.9621 28.4727 58.9948 28.6381 58.9948C28.8034 58.9948 28.9671 58.9621 29.1198 58.8985C29.2724 58.8349 29.4109 58.7417 29.5274 58.6243L34.0491 54.1025C34.3393 54.2145 34.6608 54.2145 34.951 54.1025L39.4852 58.6243C39.7199 58.8575 40.0373 58.9885 40.3682 58.9885C40.6992 58.9885 41.0166 58.8575 41.2513 58.6243C41.4846 58.3896 41.6156 58.0722 41.6156 57.7413C41.6156 57.4104 41.4846 57.0929 41.2513 56.8582L35.7526 51.3594Z" fill="white"/>
</g>
<g filter="url(#filter1_d_120_9342)">
<path d="M55.1421 45.5099H47.3638L41.9903 40.1489C41.878 40.0178 41.7398 39.9114 41.5844 39.8362C41.429 39.761 41.2598 39.7188 41.0873 39.7121C40.9148 39.7055 40.7427 39.7345 40.582 39.7975C40.4213 39.8605 40.2753 39.9559 40.1532 40.078C40.0312 40.2001 39.9356 40.3461 39.8727 40.5068C39.8097 40.6675 39.7806 40.8396 39.7873 41.0121C39.794 41.1846 39.8362 41.3538 39.9114 41.5092C39.9866 41.6646 40.0931 41.8028 40.2242 41.9151L45.5851 47.276V55.0544C45.5851 55.3866 45.7171 55.7052 45.952 55.9401C46.1869 56.175 46.5055 56.307 46.8377 56.307C47.1699 56.307 47.4885 56.175 47.7234 55.9401C47.9583 55.7052 48.0902 55.3866 48.0902 55.0544V48.6539C48.2341 48.5952 48.3658 48.5102 48.4785 48.4033C48.5888 48.2933 48.6743 48.1609 48.7291 48.015H55.1421C55.4743 48.015 55.7929 47.8831 56.0278 47.6482C56.2627 47.4133 56.3947 47.0947 56.3947 46.7625C56.3947 46.4303 56.2627 46.1117 56.0278 45.8768C55.7929 45.6419 55.4743 45.5099 55.1421 45.5099Z" fill="white"/>
</g>
<g filter="url(#filter2_d_120_9342)">
<path d="M54.1025 34.9508C54.1685 34.8097 54.2027 34.6558 54.2027 34.4999C54.2027 34.3441 54.1685 34.1901 54.1025 34.049L58.6368 29.5147C58.8701 29.28 59.001 28.9626 59.001 28.6317C59.001 28.3008 58.8701 27.9833 58.6368 27.7487C58.5203 27.6313 58.3818 27.5381 58.2291 27.4745C58.0765 27.4109 57.9128 27.3782 57.7474 27.3782C57.5821 27.3782 57.4184 27.4109 57.2658 27.4745C57.1131 27.5381 56.9746 27.6313 56.8581 27.7487L51.3845 33.2474H43.8065C43.4743 33.2474 43.1557 33.3793 42.9208 33.6142C42.6859 33.8491 42.554 34.1677 42.554 34.4999C42.554 34.8321 42.6859 35.1507 42.9208 35.3856C43.1557 35.6205 43.4743 35.7525 43.8065 35.7525H51.3845L56.8832 41.2512C57.0002 41.3673 57.139 41.4592 57.2916 41.5215C57.4442 41.5838 57.6077 41.6154 57.7725 41.6145C57.9374 41.6154 58.1008 41.5838 58.2534 41.5215C58.406 41.4592 58.5448 41.3673 58.6618 41.2512C58.7792 41.1347 58.8724 40.9962 58.936 40.8436C58.9996 40.691 59.0323 40.5273 59.0323 40.3619C59.0323 40.1965 58.9996 40.0328 58.936 39.8802C58.8724 39.7276 58.7792 39.589 58.6618 39.4726L54.1025 34.9508Z" fill="white"/>
</g>
<g filter="url(#filter3_d_120_9342)">
<path d="M40.1741 27.0473C40.0567 27.1637 39.9635 27.3023 39.8999 27.4549C39.8363 27.6076 39.8036 27.7712 39.8036 27.9366C39.8036 28.1019 39.8363 28.2656 39.8999 28.4183C39.9635 28.5709 40.0567 28.7095 40.1741 28.8259C40.2911 28.942 40.4299 29.0338 40.5825 29.0961C40.7351 29.1585 40.8986 29.1901 41.0634 29.1891C41.392 29.1877 41.7069 29.0573 41.9402 28.8259L47.3137 23.465H55.1421C55.4743 23.465 55.7929 23.333 56.0278 23.0981C56.2627 22.8632 56.3947 22.5446 56.3947 22.2124C56.3947 21.8802 56.2627 21.5616 56.0278 21.3267C55.7929 21.0918 55.4743 20.9599 55.1421 20.9599H48.729C48.6744 20.8139 48.5891 20.6813 48.4789 20.5711C48.3687 20.4609 48.2362 20.3757 48.0902 20.3211V13.9205C48.0902 13.5883 47.9583 13.2697 47.7234 13.0348C47.4885 12.7999 47.1699 12.668 46.8377 12.668C46.5055 12.668 46.1869 12.7999 45.952 13.0348C45.7171 13.2697 45.5851 13.5883 45.5851 13.9205V21.7114L40.1741 27.0473Z" fill="white"/>
</g>
<g filter="url(#filter4_d_120_9342)">
<path d="M28.9888 41.7523C29.1727 41.5634 29.2923 41.3212 29.3305 41.0603C29.3688 40.7994 29.3237 40.5332 29.2018 40.2994C30.1431 41.1356 31.2709 41.7343 32.4909 42.0457C33.7109 42.3571 34.9877 42.372 36.2147 42.0892C37.4416 41.8064 38.5831 41.2341 39.5437 40.4202C40.5044 39.6062 41.2562 38.5741 41.7366 37.4103C42.217 36.2464 42.4119 34.9845 42.305 33.7299C42.1981 32.4753 41.7926 31.2645 41.1222 30.1987C40.4519 29.1328 39.5362 28.2428 38.4517 27.6031C37.3673 26.9634 36.1454 26.5924 34.8883 26.5213C35.1354 26.4407 35.3514 26.2853 35.5062 26.0766C35.6611 25.8679 35.7472 25.6161 35.7526 25.3563V17.5529L41.2513 12.0542C41.3687 11.9377 41.4619 11.7993 41.5255 11.6466C41.5891 11.494 41.6219 11.3303 41.6219 11.1649C41.6219 10.9996 41.5891 10.8358 41.5255 10.6832C41.4619 10.5306 41.3687 10.392 41.2513 10.2756C41.0167 10.0423 40.6992 9.91135 40.3683 9.91135C40.0374 9.91135 39.7199 10.0423 39.4852 10.2756L34.7756 14.9852C34.6839 14.9781 34.5918 14.9781 34.5001 14.9852C34.4083 14.9792 34.3162 14.9792 34.2245 14.9852L29.5274 10.2756C29.2915 10.0397 28.9717 9.90723 28.6381 9.90723C28.3045 9.90723 27.9847 10.0397 27.7488 10.2756C27.5129 10.5114 27.3804 10.8313 27.3804 11.1649C27.3804 11.4985 27.5129 11.8183 27.7488 12.0542L33.2475 17.5529V25.4691C33.2529 25.7289 33.339 25.9806 33.4939 26.1893C33.6487 26.398 33.8647 26.5534 34.1118 26.6339C32.2884 26.727 30.5535 27.4484 29.2018 28.6756C29.3208 28.4433 29.3643 28.1795 29.3261 27.9213C29.2879 27.663 29.17 27.4231 28.9888 27.2351L23.465 21.7114V13.9455C23.465 13.6133 23.3331 13.2948 23.0982 13.0599C22.8633 12.825 22.5447 12.693 22.2125 12.693C21.8803 12.693 21.5617 12.825 21.3268 13.0599C21.0919 13.2948 20.9599 13.6133 20.9599 13.9455V20.5966C20.8801 20.6394 20.8046 20.6897 20.7345 20.7469C20.669 20.818 20.6142 20.8981 20.5716 20.9849H13.9206C13.5884 20.9849 13.2698 21.1169 13.0349 21.3518C12.8 21.5867 12.668 21.9053 12.668 22.2375C12.668 22.5697 12.8 22.8883 13.0349 23.1232C13.2698 23.3581 13.5884 23.49 13.9206 23.49H21.6989L27.2102 29.0013C27.3262 29.1196 27.4645 29.2138 27.6172 29.2783C27.7698 29.3428 27.9338 29.3764 28.0995 29.377C28.2982 29.3717 28.4922 29.3157 28.6631 29.2142C27.426 30.5646 26.7033 32.3072 26.6215 34.1367C26.5403 33.8876 26.383 33.6703 26.1718 33.5153C25.9606 33.3602 25.7061 33.2753 25.4441 33.2725H17.6407L12.142 27.7738C11.9023 27.5686 11.5941 27.4613 11.2789 27.4735C10.9636 27.4857 10.6646 27.6164 10.4415 27.8395C10.2184 28.0626 10.0878 28.3616 10.0756 28.6768C10.0634 28.9921 10.1706 29.3003 10.3758 29.5399L15.0604 34.237C15.0475 34.3284 15.0475 34.4211 15.0604 34.5125C15.0487 34.604 15.0487 34.6966 15.0604 34.7881L10.3508 39.4852C10.1149 39.7194 9.98177 40.0377 9.9806 40.3701C9.97942 40.7025 10.1103 41.0217 10.3445 41.2575C10.5787 41.4934 10.897 41.6266 11.2294 41.6278C11.5618 41.6289 11.881 41.498 12.1169 41.2638L17.6156 35.7651H25.419C25.681 35.7622 25.9355 35.6774 26.1467 35.5223C26.358 35.3673 26.5152 35.15 26.5964 34.9009C26.6758 36.7273 27.3991 38.4666 28.6381 39.8109C28.4031 39.6905 28.136 39.6474 27.8751 39.6879C27.6141 39.7284 27.3726 39.8504 27.1851 40.0363L21.6739 45.5476H13.8955C13.5633 45.5476 13.2447 45.6795 13.0098 45.9144C12.7749 46.1493 12.643 46.4679 12.643 46.8001C12.643 47.1323 12.7749 47.4509 13.0098 47.6858C13.2447 47.9207 13.5633 48.0527 13.8955 48.0527H20.5591C20.5938 48.1371 20.6448 48.2137 20.7093 48.2782C20.7738 48.3427 20.8505 48.3938 20.9349 48.4285V55.0921C20.9349 55.4243 21.0668 55.7428 21.3017 55.9777C21.5366 56.2126 21.8552 56.3446 22.1874 56.3446C22.5196 56.3446 22.8382 56.2126 23.0731 55.9777C23.308 55.7428 23.44 55.4243 23.44 55.0921V47.3137L28.9888 41.7523ZM34.5001 29.0639C35.5678 29.0639 36.6116 29.3805 37.4993 29.9737C38.3871 30.5669 39.079 31.4101 39.4876 32.3965C39.8962 33.383 40.0032 34.4684 39.7949 35.5156C39.5866 36.5628 39.0724 37.5247 38.3174 38.2797C37.5624 39.0347 36.6005 39.5489 35.5533 39.7572C34.5061 39.9655 33.4206 39.8586 32.4341 39.45C31.4477 39.0414 30.6046 38.3495 30.0114 37.4617C29.4182 36.5739 29.1015 35.5301 29.1015 34.4624C29.1115 33.0372 29.6846 31.6737 30.696 30.6694C31.7073 29.6651 33.0748 29.1015 34.5001 29.1015V29.0639Z" fill="white"/>
</g>
<defs>
<filter id="filter0_d_120_9342" x="25.3845" y="41.5916" width="22.2311" height="24.4032" filterUnits="userSpaceOnUse" color-interpolation-filters="sRGB">
<feFlood flood-opacity="0" result="BackgroundImageFix"/>
<feColorMatrix in="SourceAlpha" type="matrix" values="0 0 0 0 0 0 0 0 0 0 0 0 0 0 0 0 0 0 127 0" result="hardAlpha"/>
<feOffset dx="2" dy="3"/>
<feGaussianBlur stdDeviation="2"/>
<feComposite in2="hardAlpha" operator="out"/>
<feColorMatrix type="matrix" values="0 0 0 0 0 0 0 0 0 0 0 0 0 0 0 0 0 0 0.15 0"/>
<feBlend mode="normal" in2="BackgroundImageFix" result="effect1_dropShadow_120_9342"/>
<feBlend mode="normal" in="SourceGraphic" in2="effect1_dropShadow_120_9342" result="shape"/>
</filter>
<filter id="filter1_d_120_9342" x="37.7864" y="38.7112" width="24.6083" height="24.5958" filterUnits="userSpaceOnUse" color-interpolation-filters="sRGB">
<feFlood flood-opacity="0" result="BackgroundImageFix"/>
<feColorMatrix in="SourceAlpha" type="matrix" values="0 0 0 0 0 0 0 0 0 0 0 0 0 0 0 0 0 0 127 0" result="hardAlpha"/>
<feOffset dx="2" dy="3"/>
<feGaussianBlur stdDeviation="2"/>
<feComposite in2="hardAlpha" operator="out"/>
<feColorMatrix type="matrix" values="0 0 0 0 0 0 0 0 0 0 0 0 0 0 0 0 0 0 0.15 0"/>
<feBlend mode="normal" in2="BackgroundImageFix" result="effect1_dropShadow_120_9342"/>
<feBlend mode="normal" in="SourceGraphic" in2="effect1_dropShadow_120_9342" result="shape"/>
</filter>
<filter id="filter2_d_120_9342" x="40.554" y="26.3782" width="24.4784" height="22.2363" filterUnits="userSpaceOnUse" color-interpolation-filters="sRGB">
<feFlood flood-opacity="0" result="BackgroundImageFix"/>
<feColorMatrix in="SourceAlpha" type="matrix" values="0 0 0 0 0 0 0 0 0 0 0 0 0 0 0 0 0 0 127 0" result="hardAlpha"/>
<feOffset dx="2" dy="3"/>
<feGaussianBlur stdDeviation="2"/>
<feComposite in2="hardAlpha" operator="out"/>
<feColorMatrix type="matrix" values="0 0 0 0 0 0 0 0 0 0 0 0 0 0 0 0 0 0 0.15 0"/>
<feBlend mode="normal" in2="BackgroundImageFix" result="effect1_dropShadow_120_9342"/>
<feBlend mode="normal" in="SourceGraphic" in2="effect1_dropShadow_120_9342" result="shape"/>
</filter>
<filter id="filter3_d_120_9342" x="37.8036" y="11.668" width="24.5911" height="24.5211" filterUnits="userSpaceOnUse" color-interpolation-filters="sRGB">
<feFlood flood-opacity="0" result="BackgroundImageFix"/>
<feColorMatrix in="SourceAlpha" type="matrix" values="0 0 0 0 0 0 0 0 0 0 0 0 0 0 0 0 0 0 127 0" result="hardAlpha"/>
<feOffset dx="2" dy="3"/>
<feGaussianBlur stdDeviation="2"/>
<feComposite in2="hardAlpha" operator="out"/>
<feColorMatrix type="matrix" values="0 0 0 0 0 0 0 0 0 0 0 0 0 0 0 0 0 0 0.15 0"/>
<feBlend mode="normal" in2="BackgroundImageFix" result="effect1_dropShadow_120_9342"/>
<feBlend mode="normal" in="SourceGraphic" in2="effect1_dropShadow_120_9342" result="shape"/>
</filter>
<filter id="filter4_d_120_9342" x="7.98059" y="8.90723" width="40.3529" height="54.4374" filterUnits="userSpaceOnUse" color-interpolation-filters="sRGB">
<feFlood flood-opacity="0" result="BackgroundImageFix"/>
<feColorMatrix in="SourceAlpha" type="matrix" values="0 0 0 0 0 0 0 0 0 0 0 0 0 0 0 0 0 0 127 0" result="hardAlpha"/>
<feOffset dx="2" dy="3"/>
<feGaussianBlur stdDeviation="2"/>
<feComposite in2="hardAlpha" operator="out"/>
<feColorMatrix type="matrix" values="0 0 0 0 0 0 0 0 0 0 0 0 0 0 0 0 0 0 0.15 0"/>
<feBlend mode="normal" in2="BackgroundImageFix" result="effect1_dropShadow_120_9342"/>
<feBlend mode="normal" in="SourceGraphic" in2="effect1_dropShadow_120_9342" result="shape"/>
</filter>
</defs>
</svg>
