<svg width="70" height="70" viewBox="0 0 70 70" fill="none" xmlns="http://www.w3.org/2000/svg">
<g filter="url(#filter0_d_1353_10072)">
<path d="M53.3771 46.7289H47.6301C46.8282 46.7289 46.2936 46.1868 46.2936 45.3736C46.2936 44.5604 46.8282 44.0183 47.6301 44.0183H53.3771C55.2482 44.0183 56.9857 43.3407 58.3222 41.9853C59.6587 40.63 60.327 38.8681 60.327 36.9707C60.327 35.0733 59.6587 33.3114 58.3222 31.956C56.9857 30.6007 55.2482 29.9231 53.3771 29.9231H50.3031C49.9021 29.9231 49.6348 29.7875 49.3675 29.5165C49.1002 29.2454 48.9666 28.8388 48.9666 28.4322C48.9666 28.1612 48.9666 28.0256 48.9666 27.7546C48.9666 27.4835 48.9666 27.348 48.9666 27.0769C48.9666 23.2821 47.4964 19.7582 44.8234 17.0476C42.1504 14.337 38.6754 12.8462 34.9332 12.8462C31.7255 12.8462 28.6516 13.9304 26.1122 15.9634C23.7064 17.9963 21.969 20.8425 21.3007 23.9597C21.1671 24.6374 20.6325 25.044 19.9642 25.044H19.1623C16.6229 25.044 14.2172 25.9927 12.4797 27.8901C10.7422 29.652 9.67303 32.0916 9.67303 34.6667C9.67303 37.2418 10.6086 39.6813 12.4797 41.4432C14.2172 43.2051 16.6229 44.2894 19.1623 44.2894C19.9642 44.2894 20.4988 44.8315 20.4988 45.6447C20.4988 46.4579 19.9642 47 19.1623 47C15.9547 47 12.8807 45.7802 10.6086 43.3407C8.33652 41.0366 7 37.9194 7 34.6667C7 31.4139 8.20286 28.2967 10.6086 25.9927C12.8807 23.4176 15.821 22.1978 19.0286 22.1978C19.9642 18.9451 21.8353 15.9634 24.5084 13.7949C27.4487 11.3553 31.1909 10 35.0668 10C39.4773 10 43.7542 11.7619 46.8282 14.8791C50.0358 18.1319 51.6396 22.3333 51.6396 26.8059V26.9414H53.2434C55.7828 26.9414 58.3222 28.0256 60.1933 29.7875C62.0644 31.685 63 34.1245 63 36.8352C63 39.5458 61.9308 41.9853 60.1933 43.8828C58.4558 45.7802 55.9165 46.7289 53.3771 46.7289Z" fill="white"/>
</g>
<g filter="url(#filter1_d_1353_10072)">
<path d="M17.1707 59C16.929 59 16.6873 59 16.5665 58.8589C15.9622 58.4355 15.8414 57.5888 16.2039 56.8831L18.8625 51.6615C19.2251 50.9559 19.9502 50.8148 20.4335 51.2381C21.0378 51.6615 21.1586 52.5083 20.7961 53.2139L18.1375 58.2944C18.0166 58.8589 17.5332 59 17.1707 59Z" fill="white"/>
</g>
<g filter="url(#filter2_d_1353_10072)">
<path d="M28.3717 59C28.0885 59 27.8053 59 27.6637 58.8589C26.9558 58.4355 26.8142 57.5888 27.2389 56.8831L30.354 51.6615C30.7788 50.9559 31.6283 50.8148 32.3363 51.2381C33.0442 51.6615 33.1858 52.5083 32.7611 53.2139L29.5044 58.2944C29.2212 58.8589 28.7965 59 28.3717 59Z" fill="white"/>
</g>
<g filter="url(#filter3_d_1353_10072)">
<path d="M40.3717 59C40.0885 59 39.8053 59 39.6637 58.8589C38.9558 58.4355 38.8142 57.5888 39.2389 56.8831L42.354 51.6615C42.7788 50.9559 43.6283 50.8148 44.3363 51.2381C45.0442 51.6615 45.1858 52.5083 44.7611 53.2139L41.646 58.2944C41.3628 58.8589 40.9381 59 40.3717 59Z" fill="white"/>
</g>
<g filter="url(#filter4_d_1353_10072)">
<path d="M25.3717 48C25.0885 48 24.8053 48 24.6637 47.8765C23.9558 47.5061 23.8142 46.7652 24.2389 46.1477L27.354 41.5788C27.7788 40.9614 28.6283 40.8379 29.3363 41.2084C30.0442 41.5788 30.1858 42.3197 29.7611 42.9372L26.646 47.5061C26.3628 47.8765 25.9381 48 25.3717 48Z" fill="white"/>
</g>
<g filter="url(#filter5_d_1353_10072)">
<path d="M38.3717 48C38.0885 48 37.8053 48 37.6637 47.8765C36.9558 47.5061 36.8142 46.7652 37.2389 46.1477L40.354 41.5788C40.7788 40.9614 41.6283 40.8379 42.3363 41.2084C43.0442 41.5788 43.1858 42.3197 42.7611 42.9372L39.646 47.5061C39.3628 47.8765 38.9381 48 38.3717 48Z" fill="white"/>
</g>
<defs>
<filter id="filter0_d_1353_10072" x="5" y="9" width="64" height="45" filterUnits="userSpaceOnUse" color-interpolation-filters="sRGB">
<feFlood flood-opacity="0" result="BackgroundImageFix"/>
<feColorMatrix in="SourceAlpha" type="matrix" values="0 0 0 0 0 0 0 0 0 0 0 0 0 0 0 0 0 0 127 0" result="hardAlpha"/>
<feOffset dx="2" dy="3"/>
<feGaussianBlur stdDeviation="2"/>
<feComposite in2="hardAlpha" operator="out"/>
<feColorMatrix type="matrix" values="0 0 0 0 0 0 0 0 0 0 0 0 0 0 0 0 0 0 0.15 0"/>
<feBlend mode="normal" in2="BackgroundImageFix" result="effect1_dropShadow_1353_10072"/>
<feBlend mode="normal" in="SourceGraphic" in2="effect1_dropShadow_1353_10072" result="shape"/>
</filter>
<filter id="filter1_d_1353_10072" x="14" y="50" width="13" height="16" filterUnits="userSpaceOnUse" color-interpolation-filters="sRGB">
<feFlood flood-opacity="0" result="BackgroundImageFix"/>
<feColorMatrix in="SourceAlpha" type="matrix" values="0 0 0 0 0 0 0 0 0 0 0 0 0 0 0 0 0 0 127 0" result="hardAlpha"/>
<feOffset dx="2" dy="3"/>
<feGaussianBlur stdDeviation="2"/>
<feComposite in2="hardAlpha" operator="out"/>
<feColorMatrix type="matrix" values="0 0 0 0 0 0 0 0 0 0 0 0 0 0 0 0 0 0 0.15 0"/>
<feBlend mode="normal" in2="BackgroundImageFix" result="effect1_dropShadow_1353_10072"/>
<feBlend mode="normal" in="SourceGraphic" in2="effect1_dropShadow_1353_10072" result="shape"/>
</filter>
<filter id="filter2_d_1353_10072" x="25" y="50" width="14" height="16" filterUnits="userSpaceOnUse" color-interpolation-filters="sRGB">
<feFlood flood-opacity="0" result="BackgroundImageFix"/>
<feColorMatrix in="SourceAlpha" type="matrix" values="0 0 0 0 0 0 0 0 0 0 0 0 0 0 0 0 0 0 127 0" result="hardAlpha"/>
<feOffset dx="2" dy="3"/>
<feGaussianBlur stdDeviation="2"/>
<feComposite in2="hardAlpha" operator="out"/>
<feColorMatrix type="matrix" values="0 0 0 0 0 0 0 0 0 0 0 0 0 0 0 0 0 0 0.15 0"/>
<feBlend mode="normal" in2="BackgroundImageFix" result="effect1_dropShadow_1353_10072"/>
<feBlend mode="normal" in="SourceGraphic" in2="effect1_dropShadow_1353_10072" result="shape"/>
</filter>
<filter id="filter3_d_1353_10072" x="37" y="50" width="14" height="16" filterUnits="userSpaceOnUse" color-interpolation-filters="sRGB">
<feFlood flood-opacity="0" result="BackgroundImageFix"/>
<feColorMatrix in="SourceAlpha" type="matrix" values="0 0 0 0 0 0 0 0 0 0 0 0 0 0 0 0 0 0 127 0" result="hardAlpha"/>
<feOffset dx="2" dy="3"/>
<feGaussianBlur stdDeviation="2"/>
<feComposite in2="hardAlpha" operator="out"/>
<feColorMatrix type="matrix" values="0 0 0 0 0 0 0 0 0 0 0 0 0 0 0 0 0 0 0.15 0"/>
<feBlend mode="normal" in2="BackgroundImageFix" result="effect1_dropShadow_1353_10072"/>
<feBlend mode="normal" in="SourceGraphic" in2="effect1_dropShadow_1353_10072" result="shape"/>
</filter>
<filter id="filter4_d_1353_10072" x="22" y="40" width="14" height="15" filterUnits="userSpaceOnUse" color-interpolation-filters="sRGB">
<feFlood flood-opacity="0" result="BackgroundImageFix"/>
<feColorMatrix in="SourceAlpha" type="matrix" values="0 0 0 0 0 0 0 0 0 0 0 0 0 0 0 0 0 0 127 0" result="hardAlpha"/>
<feOffset dx="2" dy="3"/>
<feGaussianBlur stdDeviation="2"/>
<feComposite in2="hardAlpha" operator="out"/>
<feColorMatrix type="matrix" values="0 0 0 0 0 0 0 0 0 0 0 0 0 0 0 0 0 0 0.15 0"/>
<feBlend mode="normal" in2="BackgroundImageFix" result="effect1_dropShadow_1353_10072"/>
<feBlend mode="normal" in="SourceGraphic" in2="effect1_dropShadow_1353_10072" result="shape"/>
</filter>
<filter id="filter5_d_1353_10072" x="35" y="40" width="14" height="15" filterUnits="userSpaceOnUse" color-interpolation-filters="sRGB">
<feFlood flood-opacity="0" result="BackgroundImageFix"/>
<feColorMatrix in="SourceAlpha" type="matrix" values="0 0 0 0 0 0 0 0 0 0 0 0 0 0 0 0 0 0 127 0" result="hardAlpha"/>
<feOffset dx="2" dy="3"/>
<feGaussianBlur stdDeviation="2"/>
<feComposite in2="hardAlpha" operator="out"/>
<feColorMatrix type="matrix" values="0 0 0 0 0 0 0 0 0 0 0 0 0 0 0 0 0 0 0.15 0"/>
<feBlend mode="normal" in2="BackgroundImageFix" result="effect1_dropShadow_1353_10072"/>
<feBlend mode="normal" in="SourceGraphic" in2="effect1_dropShadow_1353_10072" result="shape"/>
</filter>
</defs>
</svg>
