<svg width="70" height="70" viewBox="0 0 70 70" fill="none" xmlns="http://www.w3.org/2000/svg">
<g filter="url(#filter0_d_120_9317)">
<path d="M50.9732 47.1781C50.6053 47.1781 50.2525 47.0323 49.9924 46.7726C49.7322 46.5129 49.586 46.1607 49.586 45.7935C49.586 45.4263 49.7322 45.0741 49.9924 44.8144C50.2525 44.5547 50.6053 44.4088 50.9732 44.4088C53.3669 44.3163 55.6318 43.3021 57.2926 41.5789C58.9534 39.8557 59.8811 37.5574 59.8811 35.1662C59.8811 32.7751 58.9534 30.4768 57.2926 28.7536C55.6318 27.0304 53.3669 26.0161 50.9732 25.9236H48.8925C48.5385 25.9243 48.1978 25.7899 47.9399 25.5479C47.682 25.3059 47.5265 24.9747 47.5053 24.6221C47.5053 21.3078 46.1863 18.1292 43.8385 15.7857C41.4907 13.4421 38.3064 12.1255 34.9861 12.1255C31.6658 12.1255 28.4815 13.4421 26.1337 15.7857C23.7859 18.1292 22.4669 21.3078 22.4669 24.6221C22.4457 24.9747 22.2902 25.3059 22.0323 25.5479C21.7744 25.7899 21.4337 25.9243 21.0797 25.9236H19.0128C16.6191 26.0161 14.3543 27.0304 12.6935 28.7536C11.0327 30.4768 10.105 32.7751 10.105 35.1662C10.105 37.5574 11.0327 39.8557 12.6935 41.5789C14.3543 43.3021 16.6191 44.3163 19.0128 44.4088C19.3807 44.4088 19.7336 44.5547 19.9937 44.8144C20.2539 45.0741 20.4 45.4263 20.4 45.7935C20.4 46.1607 20.2539 46.5129 19.9937 46.7726C19.7336 47.0323 19.3807 47.1781 19.0128 47.1781C15.892 47.0724 12.9344 45.7605 10.7642 43.5194C8.59397 41.2783 7.38086 38.2832 7.38086 35.1662C7.38086 32.0493 8.59397 29.0542 10.7642 26.8131C12.9344 24.572 15.892 23.2601 19.0128 23.1543H19.8174C20.2397 19.4356 22.0189 16.0023 24.8153 13.5094C27.6118 11.0166 31.2299 9.63867 34.9792 9.63867C38.7285 9.63867 42.3465 11.0166 45.143 13.5094C47.9395 16.0023 49.7186 19.4356 50.1409 23.1543H50.9593C54.0801 23.2601 57.0378 24.572 59.208 26.8131C61.3782 29.0542 62.5913 32.0493 62.5913 35.1662C62.5913 38.2832 61.3782 41.2783 59.208 43.5194C57.0378 45.7605 54.0801 47.0724 50.9593 47.1781H50.9732Z" fill="white"/>
</g>
<g filter="url(#filter1_d_120_9317)">
<path d="M22.1201 60.0691C21.9044 60.0676 21.6919 60.0159 21.4997 59.9181C21.3075 59.8202 21.1408 59.679 21.0129 59.5056C20.8849 59.3322 20.7993 59.1314 20.7627 58.9191C20.7262 58.7069 20.7397 58.4891 20.8023 58.2829L26.7949 38.8977C26.9035 38.5471 27.1472 38.2539 27.4724 38.0826C27.7975 37.9112 28.1775 37.8757 28.5288 37.9839C28.8801 38.0923 29.1738 38.3356 29.3455 38.6601C29.5171 38.9847 29.5527 39.364 29.4444 39.7147L23.4518 59.0999C23.3628 59.3823 23.1854 59.6289 22.9458 59.8033C22.7061 59.9778 22.4167 60.0709 22.1201 60.0691Z" fill="white"/>
</g>
<g filter="url(#filter2_d_120_9317)">
<path d="M31.1784 60.0693C31.0451 60.0905 30.9093 60.0905 30.7761 60.0693C30.4248 59.9608 30.1311 59.7175 29.9594 59.393C29.7878 59.0685 29.7522 58.6892 29.8606 58.3384L35.8392 38.9532C35.8886 38.7745 35.9734 38.6074 36.0886 38.462C36.2039 38.3165 36.3472 38.1957 36.5101 38.1066C36.673 38.0175 36.8522 37.962 37.037 37.9433C37.2218 37.9246 37.4085 37.9432 37.586 37.998C37.7635 38.0527 37.9282 38.1424 38.0703 38.2619C38.2124 38.3814 38.3289 38.5281 38.4131 38.6934C38.4973 38.8586 38.5474 39.0391 38.5604 39.2241C38.5734 39.4091 38.549 39.5948 38.4887 39.7702L32.51 59.1554C32.4116 59.4275 32.2301 59.662 31.9913 59.8259C31.7525 59.9898 31.4682 60.0749 31.1784 60.0693Z" fill="white"/>
</g>
<g filter="url(#filter3_d_120_9317)">
<path d="M40.2365 60.0693C40.0986 60.0902 39.9583 60.0902 39.8204 60.0693C39.4691 59.9608 39.1754 59.7175 39.0038 59.393C38.8321 59.0685 38.7965 58.6892 38.9049 58.3384L44.8974 38.9532C44.9467 38.7745 45.0315 38.6074 45.1468 38.462C45.262 38.3165 45.4053 38.1957 45.5683 38.1066C45.7312 38.0175 45.9103 37.962 46.0952 37.9433C46.28 37.9246 46.4667 37.9432 46.6442 37.998C46.8217 38.0527 46.9864 38.1424 47.1284 38.2619C47.2705 38.3814 47.3871 38.5281 47.4713 38.6934C47.5555 38.8586 47.6056 39.0391 47.6186 39.2241C47.6316 39.4091 47.6072 39.5948 47.5469 39.7702L41.5543 59.1554C41.4566 59.4252 41.2773 59.6581 41.0412 59.8218C40.8052 59.9856 40.524 60.072 40.2365 60.0693Z" fill="white"/>
</g>
<defs>
<filter id="filter0_d_120_9317" x="5.38086" y="8.63867" width="63.2104" height="45.5394" filterUnits="userSpaceOnUse" color-interpolation-filters="sRGB">
<feFlood flood-opacity="0" result="BackgroundImageFix"/>
<feColorMatrix in="SourceAlpha" type="matrix" values="0 0 0 0 0 0 0 0 0 0 0 0 0 0 0 0 0 0 127 0" result="hardAlpha"/>
<feOffset dx="2" dy="3"/>
<feGaussianBlur stdDeviation="2"/>
<feComposite in2="hardAlpha" operator="out"/>
<feColorMatrix type="matrix" values="0 0 0 0 0 0 0 0 0 0 0 0 0 0 0 0 0 0 0.15 0"/>
<feBlend mode="normal" in2="BackgroundImageFix" result="effect1_dropShadow_120_9317"/>
<feBlend mode="normal" in="SourceGraphic" in2="effect1_dropShadow_120_9317" result="shape"/>
</filter>
<filter id="filter1_d_120_9317" x="18.7427" y="36.9224" width="16.7633" height="30.1469" filterUnits="userSpaceOnUse" color-interpolation-filters="sRGB">
<feFlood flood-opacity="0" result="BackgroundImageFix"/>
<feColorMatrix in="SourceAlpha" type="matrix" values="0 0 0 0 0 0 0 0 0 0 0 0 0 0 0 0 0 0 127 0" result="hardAlpha"/>
<feOffset dx="2" dy="3"/>
<feGaussianBlur stdDeviation="2"/>
<feComposite in2="hardAlpha" operator="out"/>
<feColorMatrix type="matrix" values="0 0 0 0 0 0 0 0 0 0 0 0 0 0 0 0 0 0 0.15 0"/>
<feBlend mode="normal" in2="BackgroundImageFix" result="effect1_dropShadow_120_9317"/>
<feBlend mode="normal" in="SourceGraphic" in2="effect1_dropShadow_120_9317" result="shape"/>
</filter>
<filter id="filter2_d_120_9317" x="27.799" y="36.9363" width="16.7649" height="30.1489" filterUnits="userSpaceOnUse" color-interpolation-filters="sRGB">
<feFlood flood-opacity="0" result="BackgroundImageFix"/>
<feColorMatrix in="SourceAlpha" type="matrix" values="0 0 0 0 0 0 0 0 0 0 0 0 0 0 0 0 0 0 127 0" result="hardAlpha"/>
<feOffset dx="2" dy="3"/>
<feGaussianBlur stdDeviation="2"/>
<feComposite in2="hardAlpha" operator="out"/>
<feColorMatrix type="matrix" values="0 0 0 0 0 0 0 0 0 0 0 0 0 0 0 0 0 0 0.15 0"/>
<feBlend mode="normal" in2="BackgroundImageFix" result="effect1_dropShadow_120_9317"/>
<feBlend mode="normal" in="SourceGraphic" in2="effect1_dropShadow_120_9317" result="shape"/>
</filter>
<filter id="filter3_d_120_9317" x="36.8433" y="36.9363" width="16.7787" height="30.1487" filterUnits="userSpaceOnUse" color-interpolation-filters="sRGB">
<feFlood flood-opacity="0" result="BackgroundImageFix"/>
<feColorMatrix in="SourceAlpha" type="matrix" values="0 0 0 0 0 0 0 0 0 0 0 0 0 0 0 0 0 0 127 0" result="hardAlpha"/>
<feOffset dx="2" dy="3"/>
<feGaussianBlur stdDeviation="2"/>
<feComposite in2="hardAlpha" operator="out"/>
<feColorMatrix type="matrix" values="0 0 0 0 0 0 0 0 0 0 0 0 0 0 0 0 0 0 0.15 0"/>
<feBlend mode="normal" in2="BackgroundImageFix" result="effect1_dropShadow_120_9317"/>
<feBlend mode="normal" in="SourceGraphic" in2="effect1_dropShadow_120_9317" result="shape"/>
</filter>
</defs>
</svg>
