<svg width="70" height="70" viewBox="0 0 70 70" fill="none" xmlns="http://www.w3.org/2000/svg">
<g filter="url(#filter0_d_30_3121)">
<path d="M39.8731 15.3114C40.2572 15.3114 40.6255 15.1585 40.8971 14.8864C41.1687 14.6143 41.3213 14.2453 41.3213 13.8605V10.4509C41.3213 10.0661 41.1687 9.69705 40.8971 9.42496C40.6255 9.15286 40.2572 9 39.8731 9C39.489 9 39.1207 9.15286 38.8491 9.42496C38.5775 9.69705 38.4249 10.0661 38.4249 10.4509V13.8605C38.4249 14.2453 38.5775 14.6143 38.8491 14.8864C39.1207 15.1585 39.489 15.3114 39.8731 15.3114Z" fill="white"/>
</g>
<g filter="url(#filter1_d_30_3121)">
<path d="M25.8404 20.2444C26.118 20.467 26.4676 20.5794 26.8226 20.5604C27.1776 20.5413 27.5132 20.3921 27.7655 20.1411C28.0178 19.8902 28.1691 19.555 28.1906 19.1995C28.2122 18.8439 28.1024 18.4929 27.8823 18.2132L25.4783 15.8047C25.207 15.5345 24.84 15.3828 24.4574 15.3828C24.0748 15.3828 23.7077 15.5345 23.4364 15.8047C23.3007 15.9396 23.1929 16.1001 23.1194 16.2769C23.0459 16.4537 23.0081 16.6433 23.0081 16.8349C23.0081 17.0264 23.0459 17.216 23.1194 17.3928C23.1929 17.5696 23.3007 17.7301 23.4364 17.865L25.8404 20.2444Z" fill="white"/>
</g>
<g filter="url(#filter2_d_30_3121)">
<path d="M61.6826 30.8069H58.2939C57.9098 30.8069 57.5415 30.9598 57.2699 31.2319C56.9983 31.504 56.8457 31.873 56.8457 32.2578C56.8457 32.6426 56.9983 33.0116 57.2699 33.2837C57.5415 33.5558 57.9098 33.7087 58.2939 33.7087H61.6826C62.0667 33.7087 62.435 33.5558 62.7066 33.2837C62.9782 33.0116 63.1308 32.6426 63.1308 32.2578C63.1308 31.873 62.9782 31.504 62.7066 31.2319C62.435 30.9598 62.0667 30.8069 61.6826 30.8069Z" fill="white"/>
</g>
<g filter="url(#filter3_d_30_3121)">
<path d="M52.8922 20.6652C53.0828 20.6663 53.2717 20.6297 53.4481 20.5575C53.6246 20.4853 53.7851 20.3789 53.9204 20.2444L56.3244 17.8359C56.4601 17.7011 56.5678 17.5406 56.6413 17.3638C56.7148 17.187 56.7527 16.9973 56.7527 16.8058C56.7527 16.6143 56.7148 16.4246 56.6413 16.2478C56.5678 16.071 56.4601 15.9106 56.3244 15.7757C56.053 15.5055 55.686 15.3538 55.3034 15.3538C54.9208 15.3538 54.5538 15.5055 54.2824 15.7757L51.8785 18.2132C51.6751 18.4152 51.5361 18.6732 51.4791 18.9544C51.422 19.2356 51.4495 19.5274 51.558 19.793C51.6665 20.0585 51.8512 20.2859 52.0887 20.4463C52.3261 20.6067 52.6058 20.693 52.8922 20.6942V20.6652Z" fill="white"/>
</g>
<g filter="url(#filter4_d_30_3121)">
<path d="M50.0828 42.1675H48.6346C48.6422 42.0758 48.6422 41.9836 48.6346 41.8918C50.2678 40.6093 51.5794 38.9622 52.4649 37.0819C53.3503 35.2016 53.7851 33.1401 53.7347 31.0617C53.6842 28.9832 53.1498 26.9453 52.1742 25.1104C51.1985 23.2755 49.8085 21.6943 48.115 20.4928C46.4215 19.2913 44.4712 18.5027 42.4197 18.19C40.3681 17.8772 38.272 18.0489 36.2984 18.6913C34.3249 19.3338 32.5284 20.4292 31.0521 21.8904C29.5758 23.3515 28.4606 25.1379 27.7954 27.1072C25.3628 27.8956 23.1582 29.2651 21.3719 31.0978C19.5856 32.9304 18.2713 35.171 17.5424 37.6262C14.4544 37.6531 11.5035 38.908 9.33899 41.1147C7.17447 43.3214 5.97356 46.2992 6.00044 49.393C6.02733 52.4868 7.27981 55.4431 9.48236 57.6117C11.6849 59.7803 14.6571 60.9835 17.7451 60.9566H50.0393C52.5358 60.9566 54.9301 59.963 56.6954 58.1944C58.4607 56.4257 59.4524 54.027 59.4524 51.5258C59.4524 49.0246 58.4607 46.6258 56.6954 44.8572C54.9301 43.0885 52.5358 42.095 50.0393 42.095L50.0828 42.1675ZM40.4524 20.9409C42.4617 20.949 44.426 21.5377 46.1097 22.6365C47.7933 23.7353 49.1247 25.2974 49.9442 27.1355C50.7636 28.9736 51.0363 31.0095 50.7295 32.999C50.4228 34.9885 49.5495 36.847 48.2146 38.3517C47.3626 34.8987 45.3837 31.8299 42.5921 29.6324C39.8005 27.4349 36.3562 26.2346 32.8061 26.2222C32.3137 26.2222 31.8213 26.2222 31.3579 26.3237C32.2604 24.6984 33.5785 23.3431 35.1768 22.3971C36.7751 21.4511 38.596 20.9485 40.4524 20.9409ZM50.0828 58.0548H17.7885C15.4687 58.0548 13.2439 57.1315 11.6035 55.488C9.96316 53.8446 9.04161 51.6156 9.04161 49.2914C9.04161 46.9672 9.96316 44.7382 11.6035 43.0947C13.2439 41.4513 15.4687 40.528 17.7885 40.528H18.7009C19.0377 40.5355 19.3665 40.4252 19.6308 40.216C19.8951 40.0067 20.0784 39.7118 20.1491 39.3818C20.6512 37.0629 21.78 34.9269 23.412 33.2073C25.044 31.4878 27.1165 30.2509 29.4029 29.6318C31.2663 29.1342 33.2167 29.0571 35.1134 29.406C37.0101 29.755 38.8059 30.5213 40.3713 31.6496C41.9367 32.778 43.2327 34.2404 44.1658 35.9312C45.0989 37.6221 45.6458 39.4993 45.7672 41.4275C45.7672 41.6742 45.7672 41.9208 45.7672 42.1675C45.7672 42.4141 45.7672 43.0235 45.7672 43.4443C45.7465 43.6455 45.768 43.8488 45.8303 44.0412C45.8927 44.2336 45.9945 44.4108 46.1292 44.5615C46.2646 44.7118 46.4299 44.832 46.6145 44.9145C46.7991 44.9969 46.9988 45.0398 47.2009 45.0403H50.0972C51.8256 45.0403 53.4831 45.7281 54.7053 46.9526C55.9274 48.177 56.614 49.8377 56.614 51.5693C56.614 53.3009 55.9274 54.9616 54.7053 56.186C53.4831 57.4104 51.8256 58.0983 50.0972 58.0983L50.0828 58.0548Z" fill="white"/>
</g>
<defs>
<filter id="filter0_d_30_3121" x="36.4249" y="8" width="10.8964" height="14.3114" filterUnits="userSpaceOnUse" color-interpolation-filters="sRGB">
<feFlood flood-opacity="0" result="BackgroundImageFix"/>
<feColorMatrix in="SourceAlpha" type="matrix" values="0 0 0 0 0 0 0 0 0 0 0 0 0 0 0 0 0 0 127 0" result="hardAlpha"/>
<feOffset dx="2" dy="3"/>
<feGaussianBlur stdDeviation="2"/>
<feComposite in2="hardAlpha" operator="out"/>
<feColorMatrix type="matrix" values="0 0 0 0 0 0 0 0 0 0 0 0 0 0 0 0 0 0 0.15 0"/>
<feBlend mode="normal" in2="BackgroundImageFix" result="effect1_dropShadow_30_3121"/>
<feBlend mode="normal" in="SourceGraphic" in2="effect1_dropShadow_30_3121" result="shape"/>
</filter>
<filter id="filter1_d_30_3121" x="21.0081" y="14.3828" width="13.1852" height="13.1797" filterUnits="userSpaceOnUse" color-interpolation-filters="sRGB">
<feFlood flood-opacity="0" result="BackgroundImageFix"/>
<feColorMatrix in="SourceAlpha" type="matrix" values="0 0 0 0 0 0 0 0 0 0 0 0 0 0 0 0 0 0 127 0" result="hardAlpha"/>
<feOffset dx="2" dy="3"/>
<feGaussianBlur stdDeviation="2"/>
<feComposite in2="hardAlpha" operator="out"/>
<feColorMatrix type="matrix" values="0 0 0 0 0 0 0 0 0 0 0 0 0 0 0 0 0 0 0.15 0"/>
<feBlend mode="normal" in2="BackgroundImageFix" result="effect1_dropShadow_30_3121"/>
<feBlend mode="normal" in="SourceGraphic" in2="effect1_dropShadow_30_3121" result="shape"/>
</filter>
<filter id="filter2_d_30_3121" x="54.8457" y="29.8069" width="14.285" height="10.9017" filterUnits="userSpaceOnUse" color-interpolation-filters="sRGB">
<feFlood flood-opacity="0" result="BackgroundImageFix"/>
<feColorMatrix in="SourceAlpha" type="matrix" values="0 0 0 0 0 0 0 0 0 0 0 0 0 0 0 0 0 0 127 0" result="hardAlpha"/>
<feOffset dx="2" dy="3"/>
<feGaussianBlur stdDeviation="2"/>
<feComposite in2="hardAlpha" operator="out"/>
<feColorMatrix type="matrix" values="0 0 0 0 0 0 0 0 0 0 0 0 0 0 0 0 0 0 0.15 0"/>
<feBlend mode="normal" in2="BackgroundImageFix" result="effect1_dropShadow_30_3121"/>
<feBlend mode="normal" in="SourceGraphic" in2="effect1_dropShadow_30_3121" result="shape"/>
</filter>
<filter id="filter3_d_30_3121" x="49.4501" y="14.3538" width="13.3026" height="13.3405" filterUnits="userSpaceOnUse" color-interpolation-filters="sRGB">
<feFlood flood-opacity="0" result="BackgroundImageFix"/>
<feColorMatrix in="SourceAlpha" type="matrix" values="0 0 0 0 0 0 0 0 0 0 0 0 0 0 0 0 0 0 127 0" result="hardAlpha"/>
<feOffset dx="2" dy="3"/>
<feGaussianBlur stdDeviation="2"/>
<feComposite in2="hardAlpha" operator="out"/>
<feColorMatrix type="matrix" values="0 0 0 0 0 0 0 0 0 0 0 0 0 0 0 0 0 0 0.15 0"/>
<feBlend mode="normal" in2="BackgroundImageFix" result="effect1_dropShadow_30_3121"/>
<feBlend mode="normal" in="SourceGraphic" in2="effect1_dropShadow_30_3121" result="shape"/>
</filter>
<filter id="filter4_d_30_3121" x="4" y="17.0381" width="61.4524" height="50.9189" filterUnits="userSpaceOnUse" color-interpolation-filters="sRGB">
<feFlood flood-opacity="0" result="BackgroundImageFix"/>
<feColorMatrix in="SourceAlpha" type="matrix" values="0 0 0 0 0 0 0 0 0 0 0 0 0 0 0 0 0 0 127 0" result="hardAlpha"/>
<feOffset dx="2" dy="3"/>
<feGaussianBlur stdDeviation="2"/>
<feComposite in2="hardAlpha" operator="out"/>
<feColorMatrix type="matrix" values="0 0 0 0 0 0 0 0 0 0 0 0 0 0 0 0 0 0 0.15 0"/>
<feBlend mode="normal" in2="BackgroundImageFix" result="effect1_dropShadow_30_3121"/>
<feBlend mode="normal" in="SourceGraphic" in2="effect1_dropShadow_30_3121" result="shape"/>
</filter>
</defs>
</svg>
