<svg width="70" height="70" viewBox="0 0 70 70" fill="none" xmlns="http://www.w3.org/2000/svg">
<g filter="url(#filter0_d_120_9332)">
<path d="M63.3968 28.642C62.6158 26.7601 61.14 25.2629 59.2851 24.4705C58.3726 24.0865 57.3975 23.8787 56.4099 23.8579C56.262 23.082 56.0206 22.3277 55.691 21.6117C55.175 20.5162 54.4633 19.5271 53.5921 18.6946C52.7248 17.8446 51.7048 17.1711 50.5874 16.7109C48.2526 15.763 45.6478 15.763 43.313 16.7109C42.1974 17.1746 41.1781 17.8476 40.3083 18.6946C39.4371 19.5238 38.7297 20.5138 38.2238 21.6117C37.8959 22.3297 37.6499 23.0833 37.4906 23.8579C36.4787 23.8696 35.4783 24.0775 34.5434 24.4705C33.7635 24.8332 33.0491 25.3263 32.4301 25.929C30.7936 24.8867 28.9289 24.2701 27.0013 24.1339C25.0737 23.9977 23.1427 24.3461 21.3796 25.1481C19.6164 25.9502 18.0756 27.1812 16.8936 28.732C15.7116 30.2829 14.9249 32.1056 14.6034 34.0387H14.3446C11.8663 34.0387 9.48944 35.0375 7.73698 36.8155C5.98452 38.5935 5 41.0049 5 43.5193C5 46.0338 5.98452 48.4452 7.73698 50.2232C9.48944 52.0011 11.8663 53 14.3446 53H37.9794C40.4552 52.9961 42.8284 51.9956 44.5777 50.218C46.3271 48.4405 47.3096 46.0312 47.3096 43.5193C47.3071 42.1587 47.0127 40.8149 46.447 39.5812H56.2948C57.3266 39.5824 58.3483 39.3741 59.2995 38.9686C60.2117 38.5719 61.0411 38.0027 61.7435 37.2913C62.4481 36.576 63.0095 35.729 63.3968 34.7971C63.7949 33.8341 64 32.8003 64 31.756C64 30.7117 63.7949 29.6779 63.3968 28.7149V28.642ZM37.9794 50.01H14.2728C12.557 50.01 10.9115 49.3184 9.69822 48.0875C8.48498 46.8566 7.8034 45.1872 7.8034 43.4464C7.8034 41.7057 8.48498 40.0362 9.69822 38.8053C10.9115 37.5744 12.557 36.8829 14.2728 36.8829H15.811C16.1802 36.8834 16.5354 36.7397 16.803 36.4817C17.0706 36.2238 17.2302 35.8713 17.2487 35.4972C17.3409 33.1712 18.3166 30.9717 19.9713 29.359C21.6261 27.7464 23.8316 26.8458 26.1261 26.8458C28.4205 26.8458 30.626 27.7464 32.2808 29.359C33.9355 30.9717 34.9112 33.1712 35.0035 35.4972C35.0219 35.8713 35.1815 36.2238 35.4491 36.4817C35.7168 36.7397 36.0719 36.8834 36.4411 36.8829H37.9794C39.6951 36.8829 41.3407 37.5744 42.5539 38.8053C43.7671 40.0362 44.4487 41.7057 44.4487 43.4464C44.4487 45.1872 43.7671 46.8566 42.5539 48.0875C41.3407 49.3184 39.6951 50.01 37.9794 50.01V50.01ZM60.7515 33.5865C60.5036 34.1666 60.1527 34.6957 59.7164 35.1472C59.2753 35.5947 58.7529 35.9514 58.1782 36.1974C57.5835 36.4577 56.9425 36.5917 56.2948 36.5912H44.3912C42.6669 34.9128 40.3689 33.9771 37.9794 33.9803H37.7206C37.3292 31.6295 36.2468 29.4535 34.6153 27.7377C34.9203 27.5093 35.248 27.3138 35.5929 27.1542C36.1898 26.9028 36.8299 26.7738 37.4762 26.775H38.6838C39.053 26.7755 39.4081 26.6319 39.6758 26.3739C39.9434 26.1159 40.103 25.7634 40.1214 25.3894C40.1731 24.5106 40.3877 23.6495 40.754 22.8515C41.1005 22.0797 41.5884 21.3818 42.1916 20.7949C42.7976 20.1827 43.509 19.6884 44.2906 19.3363C45.9338 18.6722 47.7654 18.6722 49.4086 19.3363C50.19 19.6963 50.9048 20.1897 51.5219 20.7949C52.1233 21.3891 52.6107 22.0914 52.9595 22.8661C53.3322 23.6618 53.5472 24.5241 53.5921 25.4039C53.6105 25.778 53.7701 26.1305 54.0378 26.3885C54.3054 26.6465 54.6606 26.7901 55.0297 26.7896H56.2517C56.8977 26.7915 57.5373 26.9203 58.135 27.1688C58.7105 27.4201 59.2327 27.7816 59.6733 28.2336C60.1295 28.6822 60.4919 29.2196 60.7389 29.8135C60.9859 30.4074 61.1124 31.0457 61.1109 31.6904C61.1147 32.3402 60.9926 32.9845 60.7515 33.5865V33.5865Z" fill="white"/>
</g>
<defs>
<filter id="filter0_d_120_9332" x="3" y="15" width="67" height="45" filterUnits="userSpaceOnUse" color-interpolation-filters="sRGB">
<feFlood flood-opacity="0" result="BackgroundImageFix"/>
<feColorMatrix in="SourceAlpha" type="matrix" values="0 0 0 0 0 0 0 0 0 0 0 0 0 0 0 0 0 0 127 0" result="hardAlpha"/>
<feOffset dx="2" dy="3"/>
<feGaussianBlur stdDeviation="2"/>
<feComposite in2="hardAlpha" operator="out"/>
<feColorMatrix type="matrix" values="0 0 0 0 0 0 0 0 0 0 0 0 0 0 0 0 0 0 0.15 0"/>
<feBlend mode="normal" in2="BackgroundImageFix" result="effect1_dropShadow_120_9332"/>
<feBlend mode="normal" in="SourceGraphic" in2="effect1_dropShadow_120_9332" result="shape"/>
</filter>
</defs>
</svg>
