<svg width="26" height="26" viewBox="0 0 26 26" fill="none" xmlns="http://www.w3.org/2000/svg">
<path d="M15.3887 17.8823C15.4601 17.8054 15.5 17.7021 15.5 17.5946C15.5 17.487 15.4601 17.3838 15.3887 17.3068L11.4023 13L15.3887 8.69404C15.4601 8.61711 15.5 8.51384 15.5 8.40629C15.5 8.29875 15.4601 8.19547 15.3887 8.11854C15.354 8.08102 15.3126 8.05121 15.2667 8.03085C15.2209 8.01049 15.1717 8 15.122 8C15.0723 8 15.0231 8.01049 14.9773 8.03085C14.9315 8.05121 14.89 8.08102 14.8553 8.11854L10.6161 12.6993C10.5417 12.7798 10.5 12.8877 10.5 13C10.5 13.1123 10.5417 13.2202 10.6161 13.3007L14.8553 17.8815C14.89 17.919 14.9315 17.9488 14.9773 17.9692C15.0231 17.9895 15.0723 18 15.122 18C15.1717 18 15.2209 17.9895 15.2667 17.9692C15.3126 17.9488 15.354 17.9198 15.3887 17.8823Z" fill="#AFAFAF" stroke="#AFAFAF" stroke-width="0.5"/>
</svg>
