<svg width="26" height="26" viewBox="0 0 26 26" fill="none" xmlns="http://www.w3.org/2000/svg">
<path d="M18.3887 17.8823C18.4601 17.8054 18.5 17.7021 18.5 17.5946C18.5 17.487 18.4601 17.3838 18.3887 17.3068L14.4023 13L18.3887 8.69404C18.4601 8.61711 18.5 8.51384 18.5 8.40629C18.5 8.29875 18.4601 8.19547 18.3887 8.11854C18.354 8.08102 18.3126 8.05121 18.2667 8.03085C18.2209 8.01049 18.1717 8 18.122 8C18.0723 8 18.0231 8.01049 17.9773 8.03085C17.9315 8.05121 17.89 8.08102 17.8553 8.11854L13.6161 12.6993C13.5417 12.7798 13.5 12.8877 13.5 13C13.5 13.1123 13.5417 13.2202 13.6161 13.3007L17.8553 17.8815C17.89 17.919 17.9315 17.9488 17.9773 17.9692C18.0231 17.9895 18.0723 18 18.122 18C18.1717 18 18.2209 17.9895 18.2667 17.9692C18.3126 17.9488 18.354 17.9198 18.3887 17.8823Z" fill="#AFAFAF" stroke="#AFAFAF" stroke-width="0.5"/>
<path d="M13.3887 17.8823C13.4601 17.8054 13.5 17.7021 13.5 17.5946C13.5 17.487 13.4601 17.3838 13.3887 17.3068L9.40228 13L13.3887 8.69404C13.4601 8.61711 13.5 8.51384 13.5 8.40629C13.5 8.29875 13.4601 8.19547 13.3887 8.11854C13.354 8.08102 13.3126 8.05121 13.2667 8.03085C13.2209 8.01049 13.1717 8 13.122 8C13.0723 8 13.0231 8.01049 12.9773 8.03085C12.9315 8.05121 12.89 8.08102 12.8553 8.11854L8.61613 12.6993C8.54167 12.7798 8.5 12.8877 8.5 13C8.5 13.1123 8.54167 13.2202 8.61613 13.3007L12.8553 17.8815C12.89 17.919 12.9315 17.9488 12.9773 17.9692C13.0231 17.9895 13.0723 18 13.122 18C13.1717 18 13.2209 17.9895 13.2667 17.9692C13.3126 17.9488 13.354 17.9198 13.3887 17.8823Z" fill="#AFAFAF" stroke="#AFAFAF" stroke-width="0.5"/>
</svg>
