<svg width="16" height="16" viewBox="0 0 16 16" fill="none" xmlns="http://www.w3.org/2000/svg">
<mask id="path-1-inside-1_327_9325" fill="white">
<path d="M5.32599 2.333C5.23877 2.4223 5.18994 2.54217 5.18994 2.667C5.18994 2.79183 5.23877 2.9117 5.32599 3.001L10.199 8L5.32599 12.998C5.23877 13.0873 5.18994 13.2072 5.18994 13.332C5.18994 13.4568 5.23877 13.5767 5.32599 13.666C5.36839 13.7095 5.41908 13.7442 5.47507 13.7678C5.53106 13.7914 5.59122 13.8036 5.65199 13.8036C5.71277 13.8036 5.77293 13.7914 5.82892 13.7678C5.88491 13.7442 5.9356 13.7095 5.97799 13.666L11.16 8.349C11.251 8.25563 11.3019 8.13039 11.3019 8C11.3019 7.86961 11.251 7.74437 11.16 7.651L5.97799 2.334C5.9356 2.29046 5.88491 2.25585 5.82892 2.23222C5.77293 2.20859 5.71277 2.19641 5.65199 2.19641C5.59122 2.19641 5.53106 2.20859 5.47507 2.23222C5.41908 2.25585 5.36839 2.29046 5.32599 2.334V2.333Z"/>
</mask>
<path d="M5.32599 2.333C5.23877 2.4223 5.18994 2.54217 5.18994 2.667C5.18994 2.79183 5.23877 2.9117 5.32599 3.001L10.199 8L5.32599 12.998C5.23877 13.0873 5.18994 13.2072 5.18994 13.332C5.18994 13.4568 5.23877 13.5767 5.32599 13.666C5.36839 13.7095 5.41908 13.7442 5.47507 13.7678C5.53106 13.7914 5.59122 13.8036 5.65199 13.8036C5.71277 13.8036 5.77293 13.7914 5.82892 13.7678C5.88491 13.7442 5.9356 13.7095 5.97799 13.666L11.16 8.349C11.251 8.25563 11.3019 8.13039 11.3019 8C11.3019 7.86961 11.251 7.74437 11.16 7.651L5.97799 2.334C5.9356 2.29046 5.88491 2.25585 5.82892 2.23222C5.77293 2.20859 5.71277 2.19641 5.65199 2.19641C5.59122 2.19641 5.53106 2.20859 5.47507 2.23222C5.41908 2.25585 5.36839 2.29046 5.32599 2.334V2.333Z" fill="#282828"/>
<path d="M5.32599 2.333H6.32599V-0.121931L4.61062 1.63426L5.32599 2.333ZM5.18994 2.667H4.18994H5.18994ZM5.32599 3.001L6.04207 2.30298L6.04137 2.30226L5.32599 3.001ZM10.199 8L10.915 8.6981L11.5956 8.00007L10.9151 7.30198L10.199 8ZM5.32599 12.998L6.04137 13.6967L6.042 13.6961L5.32599 12.998ZM5.18994 13.332H6.18994H5.18994ZM5.32599 13.666L6.04248 12.9684L6.04137 12.9673L5.32599 13.666ZM5.97799 13.666L5.26185 12.968L5.26151 12.9684L5.97799 13.666ZM11.16 8.349L10.4439 7.651L10.4439 7.65104L11.16 8.349ZM11.16 7.651L10.4439 8.34896L10.4439 8.349L11.16 7.651ZM5.97799 2.334L5.26151 3.03161L5.26185 3.03196L5.97799 2.334ZM5.32599 2.334H4.32599V4.79454L6.04248 3.03161L5.32599 2.334ZM4.61062 1.63426C4.34093 1.91037 4.18994 2.28103 4.18994 2.667L6.18994 2.667C6.18994 2.80332 6.13662 2.93423 6.04137 3.03175L4.61062 1.63426ZM4.18994 2.667C4.18994 3.05298 4.34093 3.42363 4.61062 3.69975L6.04137 2.30226C6.13661 2.39977 6.18994 2.53068 6.18994 2.667H4.18994ZM4.60992 3.69903L9.48292 8.69803L10.9151 7.30198L6.04207 2.30298L4.60992 3.69903ZM9.48299 7.3019L4.60999 12.2999L6.042 13.6961L10.915 8.6981L9.48299 7.3019ZM4.61062 12.2993C4.34093 12.5754 4.18994 12.946 4.18994 13.332H6.18994C6.18994 13.4683 6.13661 13.5992 6.04137 13.6967L4.61062 12.2993ZM4.18994 13.332C4.18994 13.718 4.34093 14.0886 4.61062 14.3647L6.04137 12.9673C6.13662 13.0648 6.18994 13.1957 6.18994 13.332L4.18994 13.332ZM4.60951 14.3636C4.74509 14.5028 4.90718 14.6135 5.08623 14.6891L5.86391 12.8465C5.93098 12.8748 5.9917 12.9162 6.04248 12.9684L4.60951 14.3636ZM5.08623 14.6891C5.26529 14.7647 5.45766 14.8036 5.65199 14.8036V12.8036C5.72478 12.8036 5.79684 12.8182 5.86391 12.8465L5.08623 14.6891ZM5.65199 14.8036C5.84633 14.8036 6.0387 14.7647 6.21776 14.6891L5.44008 12.8465C5.50715 12.8182 5.57921 12.8036 5.65199 12.8036V14.8036ZM6.21776 14.6891C6.39681 14.6135 6.5589 14.5028 6.69448 14.3636L5.26151 12.9684C5.31229 12.9162 5.37301 12.8748 5.44008 12.8465L6.21776 14.6891ZM6.69413 14.364L11.8761 9.04696L10.4439 7.65104L5.26185 12.968L6.69413 14.364ZM11.8761 9.047C12.1491 8.76688 12.3019 8.39118 12.3019 8H10.3019C10.3019 7.86961 10.3529 7.74437 10.4439 7.651L11.8761 9.047ZM12.3019 8C12.3019 7.60882 12.1491 7.23312 11.8761 6.953L10.4439 8.349C10.3529 8.25563 10.3019 8.1304 10.3019 8H12.3019ZM11.8761 6.95304L6.69413 1.63604L5.26185 3.03196L10.4439 8.34896L11.8761 6.95304ZM6.69448 1.6364C6.5589 1.49715 6.39681 1.38648 6.21776 1.31091L5.44008 3.15352C5.37301 3.12522 5.31229 3.08376 5.26151 3.03161L6.69448 1.6364ZM6.21776 1.31091C6.03871 1.23534 5.84634 1.19641 5.65199 1.19641V3.19641C5.5792 3.19641 5.50714 3.18183 5.44008 3.15352L6.21776 1.31091ZM5.65199 1.19641C5.45765 1.19641 5.26528 1.23534 5.08623 1.31091L5.86391 3.15352C5.79685 3.18183 5.72479 3.19641 5.65199 3.19641V1.19641ZM5.08623 1.31091C4.90718 1.38648 4.74509 1.49715 4.60951 1.6364L6.04248 3.03161C5.9917 3.08376 5.93098 3.12522 5.86391 3.15352L5.08623 1.31091ZM6.32599 2.334V2.333H4.32599V2.334H6.32599Z" fill="#282828" mask="url(#path-1-inside-1_327_9325)"/>
</svg>
